<?xml version="1.0" encoding="UTF-8" standalone="no"?>
<svg
   xmlns:dc="http://purl.org/dc/elements/1.1/"
   xmlns:cc="http://creativecommons.org/ns#"
   xmlns:rdf="http://www.w3.org/1999/02/22-rdf-syntax-ns#"
   xmlns:svg="http://www.w3.org/2000/svg"
   xmlns="http://www.w3.org/2000/svg"
   xmlns:sodipodi="http://sodipodi.sourceforge.net/DTD/sodipodi-0.dtd"
   xmlns:inkscape="http://www.inkscape.org/namespaces/inkscape"
   viewBox="0.0 0.0 348.0 348.0"
   fill="none"
   version="1.1"
   id="svg6"
   sodipodi:docname="Spelling Buzzed.svg"
   inkscape:version="1.0 (4035a4fb49, 2020-05-01)">
  <metadata
     id="metadata12">
    <rdf:RDF>
      <cc:Work
         rdf:about="">
        <dc:format>image/svg+xml</dc:format>
        <dc:type
           rdf:resource="http://purl.org/dc/dcmitype/StillImage" />
      </cc:Work>
    </rdf:RDF>
  </metadata>
  <defs
     id="defs10" />
  <sodipodi:namedview
     inkscape:document-rotation="0"
     pagecolor="#ffffff"
     bordercolor="#666666"
     borderopacity="1"
     objecttolerance="10"
     gridtolerance="10"
     guidetolerance="10"
     inkscape:pageopacity="0"
     inkscape:pageshadow="2"
     inkscape:window-width="1262"
     inkscape:window-height="1018"
     id="namedview8"
     showgrid="false"
     inkscape:zoom="1.9126692"
     inkscape:cx="161.50027"
     inkscape:cy="194.46765"
     inkscape:window-x="642"
     inkscape:window-y="606"
     inkscape:window-maximized="0"
     inkscape:current-layer="svg6" />
  <path
     d="M5.079 5.776h336.913v337.67H5.08z"
     stroke-width="2"
     stroke="#000"
     id="path2" />
  <path
     d="M282.734 40.554c0-8.376 6.966-15.165 15.56-15.165 4.126 0 8.084 1.597 11.001 4.441 2.918 2.844 4.558 6.702 4.558 10.724 0 8.376-6.966 15.165-15.56 15.165-8.593 0-15.559-6.79-15.559-15.165z"
     stroke-width="2"
     stroke="#000"
     id="path4" />
  <rect
     style="fill:#000000;stroke-width:0.987528"
     id="rect16"
     width="226.24887"
     height="56.816326"
     x="29.828571"
     y="33.616325" />
  <g
     id="g946"
     transform="translate(16.730546,-0.52282958)">
    <path
       d="m 111.65711,133.42336 0,34.53731 -29.910192,17.26866 -29.910189,-17.26866 -10e-7,-34.53731 29.91019,-17.26865 z"
       inkscape:randomized="0"
       inkscape:rounded="0"
       inkscape:flatsided="true"
       sodipodi:arg2="0"
       sodipodi:arg1="-0.52359878"
       sodipodi:r2="29.910191"
       sodipodi:r1="34.537312"
       sodipodi:cy="150.69202"
       sodipodi:cx="81.746918"
       sodipodi:sides="6"
       id="path18"
       style="fill:none;stroke:#000000;stroke-width:2;stroke-miterlimit:4;stroke-dasharray:none"
       sodipodi:type="star" />
    <path
       sodipodi:type="star"
       style="fill:none;stroke:#000000;stroke-width:2;stroke-miterlimit:4;stroke-dasharray:none"
       id="path18-1"
       sodipodi:sides="6"
       sodipodi:cx="153.38766"
       sodipodi:cy="150.69202"
       sodipodi:r1="34.537312"
       sodipodi:r2="29.910191"
       sodipodi:arg1="-0.52359878"
       sodipodi:arg2="0"
       inkscape:flatsided="true"
       inkscape:rounded="0"
       inkscape:randomized="0"
       d="m 183.29785,133.42336 0,34.53731 -29.91019,17.26866 -29.91018,-17.26866 0,-34.53731 29.91018,-17.26865 z" />
    <path
       sodipodi:type="star"
       style="fill:none;stroke:#000000;stroke-width:2;stroke-miterlimit:4;stroke-dasharray:none"
       id="path18-5"
       sodipodi:sides="6"
       sodipodi:cx="45.926552"
       sodipodi:cy="212.49203"
       sodipodi:r1="34.537331"
       sodipodi:r2="29.910206"
       sodipodi:arg1="-0.52359878"
       sodipodi:arg2="0"
       inkscape:flatsided="true"
       inkscape:rounded="0"
       inkscape:randomized="0"
       d="m 75.836757,195.22337 10e-7,34.53733 -29.910206,17.26867 -29.910206,-17.26867 0,-34.53733 29.910206,-17.26867 z" />
    <path
       d="m 147.47754,195.22337 0,34.53733 -29.91021,17.26867 -29.910206,-17.26867 0,-34.53733 29.910206,-17.26867 z"
       inkscape:randomized="0"
       inkscape:rounded="0"
       inkscape:flatsided="true"
       sodipodi:arg2="0"
       sodipodi:arg1="-0.52359878"
       sodipodi:r2="29.910206"
       sodipodi:r1="34.537331"
       sodipodi:cy="212.49203"
       sodipodi:cx="117.56733"
       sodipodi:sides="6"
       id="path18-1-9"
       style="fill:#999999;stroke:#000000;stroke-width:2;stroke-miterlimit:4;stroke-dasharray:none"
       sodipodi:type="star" />
    <path
       sodipodi:type="star"
       style="fill:none;stroke:#000000;stroke-width:2;stroke-miterlimit:4;stroke-dasharray:none"
       id="path18-1-9-0"
       sodipodi:sides="6"
       sodipodi:cx="189.20815"
       sodipodi:cy="212.49203"
       sodipodi:r1="34.537331"
       sodipodi:r2="29.910206"
       sodipodi:arg1="-0.52359878"
       sodipodi:arg2="0"
       inkscape:flatsided="true"
       inkscape:rounded="0"
       inkscape:randomized="0"
       d="m 219.11835,195.22337 0,34.53733 -29.9102,17.26867 -29.91021,-17.26867 0,-34.53733 29.9102,-17.26867 z" />
    <path
       transform="matrix(0.99999717,0,0,1,1.4555961e-4,3.5999955)"
       sodipodi:type="star"
       style="fill:none;stroke:#000000;stroke-width:2;stroke-miterlimit:4;stroke-dasharray:none"
       id="path18-7"
       sodipodi:sides="6"
       sodipodi:cx="81.747192"
       sodipodi:cy="270.69202"
       sodipodi:r1="34.537312"
       sodipodi:r2="29.910191"
       sodipodi:arg1="-0.52359878"
       sodipodi:arg2="0"
       inkscape:flatsided="true"
       inkscape:rounded="0"
       inkscape:randomized="0"
       d="m 111.65738,253.42336 0,34.53731 -29.910187,17.26866 -29.91019,-17.26866 0,-34.53731 29.910189,-17.26865 z" />
    <path
       transform="matrix(0.99999717,0,0,1,1.4555961e-4,3.5999955)"
       d="m 183.29738,253.42336 0,34.53731 -29.91019,17.26866 -29.91019,-17.26866 0,-34.53731 29.91019,-17.26865 z"
       inkscape:randomized="0"
       inkscape:rounded="0"
       inkscape:flatsided="true"
       sodipodi:arg2="0"
       sodipodi:arg1="-0.52359878"
       sodipodi:r2="29.910191"
       sodipodi:r1="34.537312"
       sodipodi:cy="270.69202"
       sodipodi:cx="153.38719"
       sodipodi:sides="6"
       id="path18-1-0"
       style="fill:none;stroke:#000000;stroke-width:2;stroke-miterlimit:4;stroke-dasharray:none"
       sodipodi:type="star" />
  </g>
  <rect
     style="fill:#000000;stroke:none;stroke-width:2.25084;stroke-miterlimit:4;stroke-dasharray:none"
     id="rect948"
     width="54.962963"
     height="215.40579"
     x="274.9425"
     y="109.27137" />
  <circle
     style="fill:#808080;stroke:#000000;stroke-width:2;stroke-miterlimit:4;stroke-dasharray:none"
     id="path950"
     cx="238.41028"
     cy="150.57492"
     r="13.07074" />
  <rect
     style="fill:#ffffff;stroke:none;stroke-width:1.9;stroke-miterlimit:4;stroke-dasharray:none"
     id="rect960"
     width="28.31122"
     height="17.880772"
     x="288.3013"
     y="291.68661" />
  <rect
     y="254.65704"
     x="288.30103"
     height="17.880772"
     width="28.31122"
     id="rect960-0"
     style="fill:#ffffff;stroke:none;stroke-width:1.9;stroke-miterlimit:4;stroke-dasharray:none" />
  <rect
     y="217.62746"
     x="288.30103"
     height="17.880772"
     width="28.31122"
     id="rect960-1"
     style="fill:#ffffff;stroke:none;stroke-width:1.9;stroke-miterlimit:4;stroke-dasharray:none" />
  <g
     style="font-style:normal;font-variant:normal;font-weight:normal;font-stretch:normal;font-size:29.3333px;line-height:125%;font-family:Arial;-inkscape-font-specification:Arial;letter-spacing:0px;word-spacing:0px;fill:#000000;fill-opacity:1;stroke:none;stroke-width:1px;stroke-linecap:butt;stroke-linejoin:miter;stroke-opacity:1"
     id="text994"
     aria-label="[ DISPLAY ]">
    <path
       id="path848"
       style="font-style:normal;font-variant:normal;font-weight:normal;font-stretch:normal;font-size:29.3333px;font-family:Arial;-inkscape-font-specification:Arial;fill:#ffffff"
       d="M 68,77.979903 V 51.15311 h 5.686192 v 2.134113 h -3.10807 V 75.84579 h 3.10807 v 2.134113 z" />
    <path
       id="path850"
       style="font-style:normal;font-variant:normal;font-weight:normal;font-stretch:normal;font-size:29.3333px;font-family:Arial;-inkscape-font-specification:Arial;fill:#ffffff"
       d="M 84.54295,72.150482 V 51.15311 h 7.233065 q 2.449216,0 3.738277,0.300781 1.804685,0.415364 3.079423,1.503905 1.661455,1.403644 2.477865,3.595048 0.83073,2.177081 0.83073,4.984369 0,2.391924 -0.5586,4.239579 -0.55859,1.847654 -1.432288,3.0651 -0.873697,1.203124 -1.919268,1.904946 -1.031249,0.687499 -2.506508,1.045572 -1.460936,0.358072 -3.365882,0.358072 z m 2.778643,-2.477862 h 4.483068 q 2.07682,0 3.251298,-0.386718 1.188801,-0.386718 1.890623,-1.08854 0.98828,-0.98828 1.53255,-2.649737 0.558593,-1.675779 0.558593,-4.053381 0,-3.294267 -1.08854,-5.055983 -1.074218,-1.77604 -2.621091,-2.377602 -1.117186,-0.429687 -3.595048,-0.429687 h -4.411453 z" />
    <path
       id="path852"
       style="font-style:normal;font-variant:normal;font-weight:normal;font-stretch:normal;font-size:29.3333px;font-family:Arial;-inkscape-font-specification:Arial;fill:#ffffff"
       d="M 106.2135,72.150482 V 51.15311 h 2.77864 v 20.997372 z" />
    <path
       id="path854"
       style="font-style:normal;font-variant:normal;font-weight:normal;font-stretch:normal;font-size:29.3333px;font-family:Arial;-inkscape-font-specification:Arial;fill:#ffffff"
       d="m 112.93094,65.404396 2.62109,-0.229166 q 0.1862,1.575519 0.85937,2.592445 0.6875,1.002603 2.11979,1.63281 1.43229,0.615885 3.22266,0.615885 1.58984,0 2.80728,-0.472656 1.21745,-0.472655 1.80469,-1.289061 0.60156,-0.830728 0.60156,-1.804685 0,-0.98828 -0.57292,-1.718748 -0.57291,-0.744791 -1.89062,-1.246092 -0.84505,-0.329427 -3.73828,-1.016926 -2.89322,-0.701822 -4.05338,-1.317707 -1.5039,-0.78776 -2.24869,-1.947915 -0.73047,-1.174477 -0.73047,-2.62109 0,-1.589842 0.90234,-2.964841 0.90235,-1.389321 2.63542,-2.105466 1.73307,-0.716145 3.85286,-0.716145 2.33463,0 4.11067,0.759114 1.79036,0.74479 2.75,2.205726 0.95963,1.460936 1.03125,3.30859 l -2.66406,0.200521 q -0.21485,-1.990883 -1.46094,-3.007809 -1.23177,-1.016926 -3.65234,-1.016926 -2.52083,0 -3.68098,0.930988 -1.14584,0.916666 -1.14584,2.22005 0,1.131509 0.81641,1.861977 0.80208,0.730468 4.18229,1.503904 3.39452,0.759114 4.65494,1.33203 1.83333,0.845051 2.70703,2.148435 0.87369,1.289061 0.87369,2.979163 0,1.67578 -0.95963,3.165361 -0.95964,1.475259 -2.76432,2.305987 -1.79036,0.816406 -4.03906,0.816406 -2.85026,0 -4.78385,-0.830729 -1.91927,-0.830728 -3.02213,-2.492184 -1.08854,-1.675779 -1.14583,-3.781246 z" />
    <path
       id="path856"
       style="font-style:normal;font-variant:normal;font-weight:normal;font-stretch:normal;font-size:29.3333px;font-family:Arial;-inkscape-font-specification:Arial;fill:#ffffff"
       d="M 133.46998,72.150482 V 51.15311 h 7.92056 q 2.09115,0 3.19401,0.200521 1.54687,0.257812 2.59245,0.98828 1.04557,0.716145 1.67578,2.019529 0.64453,1.303384 0.64453,2.86458 0,2.678382 -1.70443,4.54036 -1.70442,1.847654 -6.15885,1.847654 h -5.38541 v 8.536448 z m 2.77864,-11.01431 h 5.42838 q 2.69271,0 3.82422,-1.002603 1.13151,-1.002603 1.13151,-2.821611 0,-1.317707 -0.67318,-2.248696 -0.65885,-0.945311 -1.74739,-1.246092 -0.70183,-0.186198 -2.59245,-0.186198 h -5.37109 z" />
    <path
       id="path858"
       style="font-style:normal;font-variant:normal;font-weight:normal;font-stretch:normal;font-size:29.3333px;font-family:Arial;-inkscape-font-specification:Arial;fill:#ffffff"
       d="M 152.94912,72.150482 V 51.15311 h 2.77865 v 18.51951 h 10.34113 v 2.477862 z" />
    <path
       id="path860"
       style="font-style:normal;font-variant:normal;font-weight:normal;font-stretch:normal;font-size:29.3333px;font-family:Arial;-inkscape-font-specification:Arial;fill:#ffffff"
       d="m 167.08582,72.150482 8.0638,-20.997372 h 2.99348 l 8.59374,20.997372 h -3.16536 l -2.44921,-6.359368 h -8.77994 l -2.30599,6.359368 z m 6.05859,-8.622386 h 7.11848 l -2.1914,-5.815097 q -1.00261,-2.649737 -1.48958,-4.354162 -0.40105,2.019529 -1.13151,4.010412 z" />
    <path
       id="path862"
       style="font-style:normal;font-variant:normal;font-weight:normal;font-stretch:normal;font-size:29.3333px;font-family:Arial;-inkscape-font-specification:Arial;fill:#ffffff"
       d="M 192.72382,72.150482 V 63.255961 L 184.63138,51.15311 h 3.3802 l 4.13932,6.330722 q 1.14583,1.77604 2.13411,3.55208 0.94531,-1.647134 2.29167,-3.709632 l 4.0677,-6.17317 h 3.23698 l -8.3789,12.102851 v 8.894521 z" />
    <path
       id="path864"
       style="font-style:normal;font-variant:normal;font-weight:normal;font-stretch:normal;font-size:29.3333px;font-family:Arial;-inkscape-font-specification:Arial;fill:#ffffff"
       d="m 218.00373,77.979903 h -5.68619 V 75.84579 h 3.10807 V 53.287223 h -3.10807 V 51.15311 h 5.68619 z" />
  </g>
  <rect
     transform="rotate(45)"
     y="13.720826"
     x="351.26654"
     height="23.193804"
     width="23.193804"
     id="rect867"
     style="fill:#808080;stroke:#000000;stroke-width:1.8107" />
</svg>
